<svg width="0" height="0" class="hidden"><symbol fill="none" xmlns="http://www.w3.org/2000/svg" viewBox="0 0 35 24" id="apple"><rect width="35" height="24" rx="4" fill="#F7F7F7"/><path fill-rule="evenodd" clip-rule="evenodd" d="M8.346 8.933c.47.04.94-.238 1.234-.59.289-.362.48-.847.43-1.343-.415.02-.93.278-1.223.64-.27.312-.5.817-.44 1.293Zm5.592 6.384V7.59h2.864c1.479 0 2.512 1.03 2.512 2.537s-1.053 2.548-2.551 2.548h-1.64v2.642h-1.185Zm-3.932-6.29c-.414-.024-.792.126-1.097.248-.197.078-.363.144-.49.144-.141 0-.315-.07-.509-.148-.255-.103-.546-.22-.852-.214-.7.01-1.35.411-1.708 1.05-.735 1.28-.191 3.173.519 4.213.347.516.763 1.08 1.312 1.061.241-.01.415-.084.594-.16.207-.09.422-.182.757-.182.324 0 .53.09.727.176.187.082.367.161.634.156.568-.01.926-.515 1.273-1.03.376-.554.54-1.094.566-1.176l.002-.01-.013-.006c-.125-.058-1.084-.502-1.093-1.693-.01-1 .76-1.507.881-1.586l.015-.01c-.49-.734-1.254-.813-1.518-.833Zm11.472 6.35c.744 0 1.435-.383 1.748-.987h.024v.927h1.097V11.47c0-1.116-.881-1.834-2.237-1.834-1.259 0-2.189.728-2.223 1.73h1.067c.088-.476.524-.789 1.121-.789.725 0 1.131.342 1.131.972v.426l-1.478.09c-1.376.084-2.12.654-2.12 1.645 0 1.001.768 1.665 1.87 1.665Zm.318-.918c-.631 0-1.033-.307-1.033-.778 0-.486.387-.768 1.126-.813l1.317-.084v.436c0 .724-.607 1.24-1.41 1.24Zm6.19 1.16c-.476 1.353-1.02 1.8-2.175 1.8a3.23 3.23 0 0 1-.45-.03v-.927c.073.01.254.02.347.02.524 0 .818-.224 1-.803l.107-.343-2.008-5.625h1.24l1.395 4.565h.024l1.396-4.565h1.204l-2.08 5.908ZM15.121 8.601h1.367c1.028 0 1.615.555 1.615 1.531 0 .977-.587 1.537-1.62 1.537h-1.362V8.6Z" fill="#000"/></symbol><symbol fill="none" xmlns="http://www.w3.org/2000/svg" viewBox="0 0 35 24" id="btc"><rect width="35" height="24" rx="4" fill="#FFF8EF"/><path fill-rule="evenodd" clip-rule="evenodd" d="M25.627 12.065a8.064 8.064 0 1 1-16.129 0 8.064 8.064 0 0 1 16.13 0Zm-6.126-2.997c1.121.386 1.942.962 1.781 2.036-.117.786-.554 1.166-1.136 1.3.798.413 1.07 1.197.817 2.146-.48 1.366-1.619 1.48-3.134 1.195l-.368 1.468-.889-.22.363-1.449c-.23-.057-.466-.118-.708-.183l-.364 1.455-.888-.22.368-1.471-1.79-.45.442-1.014s.655.173.646.16c.251.063.363-.1.407-.21l.997-3.983c.011-.188-.054-.425-.414-.515.014-.01-.645-.16-.645-.16l.236-.945 1.792.442.365-1.454.887.22-.356 1.426c.238.054.479.11.712.167l.354-1.416.889.22-.364 1.455Zm-2.126 2.426c.605.16 1.922.51 2.151-.406.235-.936-1.045-1.22-1.671-1.358-.071-.015-.134-.03-.185-.042l-.442 1.768.147.038Zm-.686 2.846c.725.191 2.31.609 2.563-.4.258-1.031-1.28-1.375-2.03-1.542a10.2 10.2 0 0 1-.218-.05l-.488 1.948.173.044Z" fill="#F7931A"/></symbol><symbol fill="none" xmlns="http://www.w3.org/2000/svg" viewBox="0 0 35 24" id="eth"><rect width="35" height="24" rx="4" fill="#F1F4FF"/><circle cx="17.435" cy="11.935" fill="#6481E7" r="7.935"/><path fill-rule="evenodd" clip-rule="evenodd" d="M17.528 6.352v8.01l3.56-2.104-3.56-5.906Z" fill="#C1CCF5"/><path fill-rule="evenodd" clip-rule="evenodd" d="m13.969 12.258 3.56 2.104v-8.01l-3.56 5.906Z" fill="#fff"/><path fill-rule="evenodd" clip-rule="evenodd" d="m17.528 10.64-3.56 1.618 3.56 2.104 3.56-2.104-3.56-1.618Z" fill="#8299EC"/><path fill-rule="evenodd" clip-rule="evenodd" d="M17.528 15.036v2.913l3.562-5.016-3.562 2.103ZM17.528 10.64l-3.56 1.618 3.56 2.104V10.64Z" fill="#C1CCF5"/><path fill-rule="evenodd" clip-rule="evenodd" d="m13.969 12.933 3.56 5.016v-2.913l-3.56-2.103Z" fill="#fff"/></symbol><symbol fill="none" xmlns="http://www.w3.org/2000/svg" viewBox="0 0 35 24" id="mastercard"><rect width="35" height="24" rx="4" fill="#FFF4EE"/><path fill-rule="evenodd" clip-rule="evenodd" d="M17.75 17.157a6.75 6.75 0 0 1-4.426 1.649c-3.769 0-6.824-3.09-6.824-6.903C6.5 8.091 9.555 5 13.324 5a6.75 6.75 0 0 1 4.426 1.649A6.75 6.75 0 0 1 22.176 5C25.945 5 29 8.09 29 11.903c0 3.812-3.055 6.903-6.824 6.903a6.75 6.75 0 0 1-4.426-1.65Z" fill="#ED0006"/><path fill-rule="evenodd" clip-rule="evenodd" d="M17.75 17.157a6.92 6.92 0 0 0 2.398-5.254 6.92 6.92 0 0 0-2.398-5.254A6.75 6.75 0 0 1 22.176 5C25.945 5 29 8.09 29 11.903c0 3.812-3.055 6.903-6.824 6.903a6.75 6.75 0 0 1-4.426-1.65Z" fill="#F9A000"/><path fill-rule="evenodd" clip-rule="evenodd" d="M17.75 6.65a6.92 6.92 0 0 1 2.398 5.253 6.92 6.92 0 0 1-2.398 5.254 6.92 6.92 0 0 1-2.398-5.254 6.92 6.92 0 0 1 2.398-5.254Z" fill="#FF5E00"/></symbol><symbol fill="none" xmlns="http://www.w3.org/2000/svg" viewBox="0 0 35 24" id="google"><rect width="35" height="24" rx="4" fill="#F1F6FF"/><path fill-rule="evenodd" clip-rule="evenodd" d="M16.53 15.758v-3.02h1.559c.639 0 1.178-.215 1.618-.637l.105-.107a2.175 2.175 0 0 0-.105-3.045 2.225 2.225 0 0 0-1.618-.648h-2.503v7.457h.944Zm0-3.937V9.217h1.583c.34 0 .662.13.902.368.51.5.522 1.332.03 1.85-.24.255-.58.398-.932.386H16.53Zm7.684-.767c-.404-.374-.955-.565-1.653-.565-.897 0-1.57.333-2.016.993l.832.53c.305-.452.721-.678 1.249-.678.334 0 .656.125.908.35.246.215.387.524.387.85v.221c-.363-.202-.82-.31-1.383-.31-.657 0-1.184.155-1.577.47-.393.316-.592.732-.592 1.261-.012.482.193.94.557 1.25.37.332.838.499 1.389.499.65 0 1.166-.292 1.56-.875h.04v.708h.903v-3.146c0-.66-.2-1.183-.604-1.558Zm-2.561 3.764a.775.775 0 0 1-.31-.624c0-.28.128-.511.38-.696.258-.184.58-.28.962-.28.527-.005.938.114 1.23.352 0 .404-.157.755-.468 1.052a1.49 1.49 0 0 1-1.061.446 1.143 1.143 0 0 1-.733-.25ZM26.846 18 30 10.656h-1.026l-1.46 3.663h-.017l-1.495-3.663h-1.026l2.07 4.775L25.872 18h.973Z" fill="#3C4043"/><path d="M13.272 12.083c0-.291-.023-.583-.07-.868h-3.98v1.647h2.28a1.985 1.985 0 0 1-.844 1.302v1.07h1.36c.797-.743 1.254-1.843 1.254-3.151Z" fill="#4285F4"/><path d="M9.222 16.27c1.137 0 2.098-.381 2.796-1.035l-1.36-1.07c-.38.261-.867.41-1.436.41-1.102 0-2.034-.756-2.368-1.766h-1.4v1.106a4.21 4.21 0 0 0 3.768 2.355Z" fill="#34A853"/><path d="M6.854 12.809a2.619 2.619 0 0 1 0-1.642v-1.1H5.453a4.3 4.3 0 0 0 0 3.842l1.401-1.1Z" fill="#FBBC04"/><path d="M9.222 9.401a2.254 2.254 0 0 1 1.618.642l1.207-1.225a4.042 4.042 0 0 0-2.825-1.112 4.215 4.215 0 0 0-3.769 2.361l1.401 1.106c.334-1.017 1.266-1.772 2.368-1.772Z" fill="#EA4335"/></symbol><symbol fill="none" xmlns="http://www.w3.org/2000/svg" viewBox="0 0 35 24" id="paypal"><rect width="35" height="24" rx="4" fill="#F3FBFF"/><path d="m15.236 17.769.215-1.363-.478-.01h-2.282L14.277 6.34a.13.13 0 0 1 .129-.11h3.847c1.277 0 2.159.266 2.619.79.216.247.353.504.42.787.07.297.07.652.002 1.084l-.005.032V9.2l.216.122c.182.097.326.207.437.333.185.21.304.478.354.795.053.326.035.714-.05 1.154a4.063 4.063 0 0 1-.473 1.305c-.197.332-.45.607-.748.82a3.038 3.038 0 0 1-1.008.455 5.033 5.033 0 0 1-1.26.146h-.3a.906.906 0 0 0-.89.76l-.023.123-.379 2.401-.017.088c-.004.028-.012.042-.024.052a.064.064 0 0 1-.04.014h-1.848Z" fill="#253B80"/><path d="M21.708 8.956a6.686 6.686 0 0 1-.04.226c-.507 2.605-2.242 3.505-4.46 3.505H16.08c-.271 0-.5.197-.542.464l-.578 3.665-.164 1.04a.289.289 0 0 0 .286.333h2.002a.482.482 0 0 0 .475-.406l.02-.102.377-2.392.024-.131a.481.481 0 0 1 .476-.407h.3c1.939 0 3.457-.787 3.901-3.066.186-.952.09-1.747-.401-2.306a1.913 1.913 0 0 0-.548-.423Z" fill="#179BD7"/><path d="M21.176 8.744a3.985 3.985 0 0 0-.493-.11 6.268 6.268 0 0 0-.995-.072h-3.016a.479.479 0 0 0-.475.407l-.641 4.063-.019.118a.548.548 0 0 1 .542-.464h1.129c2.217 0 3.952-.9 4.46-3.505a5.81 5.81 0 0 0 .04-.225 2.706 2.706 0 0 0-.532-.212Z" fill="#222D65"/><path d="M16.199 8.97a.48.48 0 0 1 .475-.407h3.016c.357 0 .69.023.995.072a4.558 4.558 0 0 1 .493.11l.114.035c.15.05.29.108.417.176.151-.963 0-1.618-.521-2.212-.574-.653-1.61-.933-2.935-.933h-3.847a.55.55 0 0 0-.544.465L12.26 16.434a.33.33 0 0 0 .326.382h2.375l.597-3.784.641-4.063Z" fill="#253B80"/></symbol><symbol fill="none" xmlns="http://www.w3.org/2000/svg" viewBox="0 0 35 24" id="visa"><rect width="35" height="24" rx="4" fill="#EBF3FA"/><path d="M14.974 16.083h-1.979l1.238-7.654h1.979l-1.238 7.654ZM22.147 8.616a4.877 4.877 0 0 0-1.775-.325c-1.954 0-3.33 1.042-3.339 2.532-.016 1.099.986 1.71 1.735 2.076.765.375 1.026.619 1.026.953-.008.513-.619.749-1.189.749-.79 0-1.213-.122-1.857-.407l-.26-.123-.277 1.719c.464.211 1.32.399 2.207.407 2.076 0 3.428-1.026 3.444-2.614.008-.871-.52-1.539-1.66-2.084-.693-.35-1.117-.587-1.117-.945.008-.326.359-.66 1.14-.66a3.363 3.363 0 0 1 1.474.294l.18.081.268-1.653ZM24.779 13.371l.79-2.141c-.008.016.162-.448.26-.733l.138.66s.375 1.832.457 2.214h-1.645ZM27.22 8.43h-1.53c-.472 0-.831.139-1.035.635l-2.94 7.019h2.077l.416-1.148h2.54c.057.268.237 1.148.237 1.148h1.832L27.22 8.429ZM11.342 8.43l-1.938 5.218-.212-1.058c-.358-1.222-1.482-2.549-2.736-3.208l1.775 6.693h2.093l3.11-7.646h-2.092Z" fill="#00579F"/><path d="M7.604 8.43H4.42l-.032.154c2.483.635 4.128 2.166 4.804 4.006L8.5 9.073c-.114-.49-.464-.628-.896-.644Z" fill="#FAA61A"/></symbol></svg>