<svg width="0" height="0" class="hidden"><symbol xmlns="http://www.w3.org/2000/svg" viewBox="0 0 24 24" id="route"><path fill="none" d="M0 0h24v24H0z"/><path d="M4 15V8.5a4.5 4.5 0 0 1 9 0v7a2.5 2.5 0 1 0 5 0V8.83a3.001 3.001 0 1 1 2 0v6.67a4.5 4.5 0 1 1-9 0v-7a2.5 2.5 0 0 0-5 0V15h3l-4 5-4-5h3zm15-8a1 1 0 1 0 0-2 1 1 0 0 0 0 2z"/></symbol><symbol xmlns="http://www.w3.org/2000/svg" viewBox="0 0 24 24" id="phone"><path fill="none" d="M0 0h24v24H0z"/><path d="M21 16.42v3.536a1 1 0 0 1-.93.998c-.437.03-.794.046-1.07.046-8.837 0-16-7.163-16-16 0-.276.015-.633.046-1.07A1 1 0 0 1 4.044 3H7.58a.5.5 0 0 1 .498.45c.023.23.044.413.064.552A13.901 13.901 0 0 0 9.35 8.003c.095.2.033.439-.147.567l-2.158 1.542a13.047 13.047 0 0 0 6.844 6.844l1.54-2.154a.462.462 0 0 1 .573-.149 13.901 13.901 0 0 0 4 1.205c.139.02.322.042.55.064a.5.5 0 0 1 .449.498z"/></symbol><symbol xmlns="http://www.w3.org/2000/svg" viewBox="0 0 24 24" id="face"><path fill="none" d="M0 0h24v24H0z"/><path d="M12 22C6.477 22 2 17.523 2 12S6.477 2 12 2s10 4.477 10 10-4.477 10-10 10zm0-2a8 8 0 1 0 0-16 8 8 0 0 0 0 16zm-5-7h2a3 3 0 0 0 6 0h2a5 5 0 0 1-10 0zm1-2a1.5 1.5 0 1 1 0-3 1.5 1.5 0 0 1 0 3zm8 0a1.5 1.5 0 1 1 0-3 1.5 1.5 0 0 1 0 3z"/></symbol><symbol xmlns="http://www.w3.org/2000/svg" viewBox="0 0 24 24" id="time"><path fill="none" d="M0 0h24v24H0z"/><path d="M12 22C6.477 22 2 17.523 2 12S6.477 2 12 2s10 4.477 10 10-4.477 10-10 10zm0-2a8 8 0 1 0 0-16 8 8 0 0 0 0 16zm1-8h4v2h-6V7h2v5z"/></symbol><symbol xmlns="http://www.w3.org/2000/svg" viewBox="0 0 24 24" id="scales"><path fill="none" d="M0 0h24v24H0z"/><path d="M6 2c0 .513.49 1 1 1h10c.513 0 1-.49 1-1h2a3 3 0 0 1-3 3h-4l.001 2.062A8.002 8.002 0 0 1 20 15v6a1 1 0 0 1-1 1H5a1 1 0 0 1-1-1v-6a8.001 8.001 0 0 1 7-7.938V5H7C5.34 5 4 3.66 4 2h2zm6 7c-3.238 0-6 2.76-6 6v5h12v-5c0-3.238-2.762-6-6-6zm0 2c.742 0 1.436.202 2.032.554l-2.74 2.739a1 1 0 0 0 1.32 1.497l.095-.083 2.74-2.739A3.999 3.999 0 0 1 12 19c-2.21 0-4-1.79-4-4s1.79-4 4-4z"/></symbol><symbol xmlns="http://www.w3.org/2000/svg" viewBox="0 0 24 24" id="fire"><path fill="none" d="M0 0h24v24H0z"/><path d="M12 23a7.5 7.5 0 0 0 7.5-7.5c0-.866-.23-1.697-.5-2.47-1.667 1.647-2.933 2.47-3.8 2.47 3.995-7 1.8-10-4.2-14 .5 5-2.796 7.274-4.138 8.537A7.5 7.5 0 0 0 12 23zm.71-17.765c3.241 2.75 3.257 4.887.753 9.274-.761 1.333.202 2.991 1.737 2.991.688 0 1.384-.2 2.119-.595a5.5 5.5 0 1 1-9.087-5.412c.126-.118.765-.685.793-.71.424-.38.773-.717 1.118-1.086 1.23-1.318 2.114-2.78 2.566-4.462z"/></symbol><symbol xmlns="http://www.w3.org/2000/svg" viewBox="0 0 24 24" id="record"><path fill="none" d="M0 0h24v24H0z"/><path d="M12 22C6.477 22 2 17.523 2 12S6.477 2 12 2s10 4.477 10 10-4.477 10-10 10zm0-2a8 8 0 1 0 0-16 8 8 0 0 0 0 16zm0-5a3 3 0 1 1 0-6 3 3 0 0 1 0 6z"/></symbol><symbol xmlns="http://www.w3.org/2000/svg" viewBox="0 0 24 24" id="arrow-down"><path fill="none" d="M0 0h24v24H0z"/><path d="m12 13.172 4.95-4.95 1.414 1.414L12 16 5.636 9.636 7.05 8.222z"/></symbol></svg>