<svg width="0" height="0" class="hidden">
  <symbol fill="none" xmlns="http://www.w3.org/2000/svg" viewBox="0 0 35 24" id="apple">
    <rect width="35" height="24" rx="4" fill="#F7F7F7"></rect>
    <path fill-rule="evenodd" clip-rule="evenodd" d="M8.34621 8.93296C8.81625 8.97261 9.28629 8.69506 9.58007 8.34316C9.86895 7.98135 10.0599 7.49563 10.0109 7C9.59476 7.01983 9.08065 7.27755 8.78687 7.63936C8.51758 7.95161 8.28746 8.45715 8.34621 8.93296ZM13.9377 15.3167V7.5898H16.8021C18.2807 7.5898 19.3138 8.62071 19.3138 10.1274C19.3138 11.6341 18.2611 12.675 16.7629 12.675H15.1226V15.3167H13.9377ZM10.006 9.02712C9.59191 9.003 9.21406 9.15319 8.90886 9.2745C8.71246 9.35256 8.54615 9.41867 8.41962 9.41867C8.27763 9.41867 8.10445 9.34903 7.91001 9.27084L7.91001 9.27084L7.91 9.27084L7.91 9.27083C7.65521 9.16838 7.36392 9.05124 7.05845 9.05686C6.35829 9.06677 5.70709 9.46823 5.34966 10.1076C4.61522 11.3863 5.1587 13.2796 5.86866 14.3205C6.2163 14.8359 6.63248 15.4009 7.18086 15.3811C7.42212 15.3719 7.59566 15.2973 7.77526 15.2202C7.98203 15.1314 8.19683 15.0391 8.53223 15.0391C8.856 15.0391 9.0614 15.129 9.25858 15.2152C9.44606 15.2973 9.62611 15.376 9.89339 15.3712C10.4614 15.3613 10.8188 14.8557 11.1664 14.3403C11.5416 13.7871 11.7064 13.2471 11.7315 13.1652L11.7344 13.1557C11.7338 13.1551 11.7292 13.153 11.721 13.1492C11.5956 13.0911 10.637 12.6469 10.6278 11.4557C10.6186 10.4559 11.3881 9.94935 11.5093 9.86961L11.5093 9.86961C11.5166 9.86476 11.5216 9.86149 11.5238 9.85978C11.0342 9.12625 10.2704 9.04695 10.006 9.02712ZM21.478 15.3761C22.2223 15.3761 22.9126 14.9945 23.226 14.3898H23.2505V15.3167H24.3472V11.4706C24.3472 10.3554 23.4659 9.63675 22.1097 9.63675C20.8513 9.63675 19.921 10.3653 19.8868 11.3665H20.9541C21.0423 10.8907 21.478 10.5784 22.0754 10.5784C22.8 10.5784 23.2064 10.9204 23.2064 11.5499V11.9761L21.7277 12.0653C20.3519 12.1496 19.6077 12.7196 19.6077 13.7108C19.6077 14.712 20.3764 15.3761 21.478 15.3761ZM21.7962 14.4592C21.1646 14.4592 20.7631 14.1519 20.7631 13.6811C20.7631 13.1954 21.1499 12.9129 21.8892 12.8683L23.2063 12.784V13.2202C23.2063 13.9438 22.5992 14.4592 21.7962 14.4592ZM27.9851 15.619C27.5102 16.9721 26.9667 17.4181 25.8112 17.4181C25.723 17.4181 25.4293 17.4082 25.3607 17.3884V16.4616C25.4342 16.4715 25.6153 16.4814 25.7084 16.4814C26.2323 16.4814 26.526 16.2584 26.7072 15.6785L26.8149 15.3365L24.8074 9.7111H26.0462L27.4416 14.2759H27.4661L28.8616 9.7111H30.066L27.9851 15.619ZM15.1225 8.60088H16.4886C17.5168 8.60088 18.1044 9.15599 18.1044 10.1324C18.1044 11.1088 17.5168 11.6688 16.4837 11.6688H15.1225V8.60088Z" fill="black"></path>
  </symbol>
  <symbol fill="none" xmlns="http://www.w3.org/2000/svg" viewBox="0 0 35 24" id="btc">
    <rect width="35" height="24" rx="4" fill="#FFF8EF"></rect>
    <path fill-rule="evenodd" clip-rule="evenodd" d="M25.6274 12.0646C25.6274 16.5185 22.0169 20.1292 17.5632 20.1292C13.1095 20.1292 9.49902 16.5185 9.49902 12.0646C9.49902 7.61064 13.1095 4 17.5632 4C22.0169 4 25.6274 7.61064 25.6274 12.0646ZM19.5006 9.06831C20.6224 9.45354 21.4429 10.0304 21.282 11.1039C21.165 11.89 20.7277 12.2701 20.1465 12.4033C20.9438 12.8167 21.2155 13.6014 20.963 14.5503C20.4837 15.9157 19.3442 16.0307 17.8286 15.7453L17.4606 17.2131L16.5722 16.9922L16.9351 15.5441C16.7048 15.4871 16.4694 15.4261 16.227 15.361L15.8625 16.8162L14.9751 16.5954L15.3426 15.1246L13.5532 14.6748L13.9946 13.6613C13.9946 13.6613 14.6496 13.8343 14.6405 13.8216C14.8921 13.8837 15.004 13.7203 15.048 13.6119L16.0452 9.628C16.0564 9.43992 15.9911 9.20294 15.6311 9.11319C15.6448 9.10361 14.9857 8.95335 14.9857 8.95335L15.2221 8.00792L17.0141 8.45013L17.3786 6.99594L18.2665 7.21679L17.9096 8.64224C18.1485 8.69619 18.3885 8.75115 18.6218 8.80914L18.9762 7.39277L19.8646 7.61362L19.5006 9.06831ZM17.3749 11.4941C17.9801 11.6546 19.2969 12.0037 19.5264 11.0883C19.7606 10.1517 18.4812 9.8688 17.8548 9.7303L17.8548 9.73029L17.8547 9.73027C17.7838 9.71459 17.7212 9.70075 17.6702 9.68803L17.2277 11.4558C17.2699 11.4663 17.3194 11.4794 17.3749 11.4941ZM16.6892 14.3404C17.4141 14.5313 18.9993 14.9489 19.2515 13.9402C19.5097 12.9088 17.9727 12.5652 17.2228 12.3976L17.2227 12.3976C17.1389 12.3789 17.065 12.3623 17.0045 12.3473L16.5165 14.2956C16.5661 14.3079 16.6242 14.3232 16.6891 14.3403L16.6892 14.3404Z" fill="#F7931A"></path>
  </symbol>
  <symbol fill="none" xmlns="http://www.w3.org/2000/svg" viewBox="0 0 35 24" id="eth">
    <rect width="35" height="24" rx="4" fill="#F1F4FF"></rect>
    <ellipse cx="17.435" cy="11.935" rx="7.935" ry="7.935" fill="#6481E7"></ellipse>
    <path fill-rule="evenodd" clip-rule="evenodd" d="M17.5283 6.35181V14.362L21.0877 12.2578L17.5283 6.35181Z" fill="#C1CCF5"></path>
    <path fill-rule="evenodd" clip-rule="evenodd" d="M13.9688 12.2578L17.5281 14.362V6.35181L13.9688 12.2578Z" fill="white"></path>
    <path fill-rule="evenodd" clip-rule="evenodd" d="M17.5283 10.6401L13.9688 12.2577L17.5281 14.3619L21.0877 12.258L17.5283 10.6401Z" fill="#8299EC"></path>
    <path fill-rule="evenodd" clip-rule="evenodd" d="M17.5283 15.0359V17.9491L21.09 12.9329L17.5283 15.0359Z" fill="#C1CCF5"></path>
    <path fill-rule="evenodd" clip-rule="evenodd" d="M17.5283 10.6401L13.9688 12.2577L17.5281 14.3619L17.5283 10.6401Z" fill="#C1CCF5"></path>
    <path fill-rule="evenodd" clip-rule="evenodd" d="M13.9688 12.9329L17.5281 17.9489V15.0359L13.9688 12.9329Z" fill="white"></path>
  </symbol>
  <symbol fill="none" xmlns="http://www.w3.org/2000/svg" viewBox="0 0 35 24" id="mastercard">
    <rect width="35" height="24" rx="4" fill="#FFF4EE"></rect>
    <path fill-rule="evenodd" clip-rule="evenodd" d="M17.75 17.1569C16.5584 18.1852 15.0128 18.806 13.3238 18.806C9.55511 18.806 6.5 15.7154 6.5 11.903C6.5 8.09057 9.55511 5 13.3238 5C15.0128 5 16.5584 5.62075 17.75 6.64903C18.9416 5.62075 20.4872 5 22.1762 5C25.9449 5 29 8.09057 29 11.903C29 15.7154 25.9449 18.806 22.1762 18.806C20.4872 18.806 18.9416 18.1852 17.75 17.1569Z" fill="#ED0006"></path>
    <path fill-rule="evenodd" clip-rule="evenodd" d="M17.75 17.1569C19.2172 15.8908 20.1475 14.0068 20.1475 11.903C20.1475 9.79917 19.2172 7.91517 17.75 6.64903C18.9416 5.62075 20.4872 5 22.1762 5C25.9449 5 29 8.09057 29 11.903C29 15.7154 25.9449 18.806 22.1762 18.806C20.4872 18.806 18.9416 18.1852 17.75 17.1569Z" fill="#F9A000"></path>
    <path fill-rule="evenodd" clip-rule="evenodd" d="M17.7501 6.64908C19.2172 7.91521 20.1476 9.79921 20.1476 11.903C20.1476 14.0068 19.2172 15.8908 17.7501 17.1569C16.2829 15.8908 15.3525 14.0068 15.3525 11.903C15.3525 9.7992 16.2829 7.91521 17.7501 6.64908Z" fill="#FF5E00"></path>
  </symbol>
  <symbol fill="none" xmlns="http://www.w3.org/2000/svg" viewBox="0 0 35 24" id="google">
    <rect width="35" height="24" rx="4" fill="#F1F6FF"></rect>
    <path fill-rule="evenodd" clip-rule="evenodd" d="M16.5296 15.7581V12.7371H18.0888C18.7277 12.7371 19.267 12.523 19.7066 12.1008L19.8121 11.9938C20.6152 11.1196 20.5624 9.75781 19.7066 8.94905C19.2787 8.52088 18.6926 8.28896 18.0888 8.30085H15.5859V15.7581H16.5296ZM16.5298 11.8213V9.21664H18.1126C18.4527 9.21664 18.7751 9.34747 19.0155 9.58534C19.5255 10.0849 19.5372 10.9174 19.0448 11.4348C18.8044 11.6905 18.4644 11.8332 18.1126 11.8213H16.5298ZM24.2142 11.0542C23.8097 10.6796 23.2587 10.4893 22.5612 10.4893C21.6644 10.4893 20.9903 10.8223 20.5448 11.4824L21.3772 12.0116C21.682 11.5597 22.0981 11.3337 22.6257 11.3337C22.9598 11.3337 23.2822 11.4586 23.5342 11.6846C23.7804 11.8986 23.9211 12.2079 23.9211 12.5349V12.755C23.5577 12.5528 23.1005 12.4457 22.5378 12.4457C21.8813 12.4457 21.3537 12.6004 20.961 12.9155C20.5683 13.2307 20.369 13.647 20.369 14.1763C20.3573 14.6579 20.5624 15.1158 20.9258 15.4251C21.2951 15.7581 21.764 15.9246 22.315 15.9246C22.9657 15.9246 23.4815 15.6332 23.8742 15.0504H23.9152V15.7581H24.8179V12.6123C24.8179 11.9522 24.6186 11.4289 24.2142 11.0542ZM21.6528 14.8185C21.4594 14.6758 21.3421 14.4439 21.3421 14.1941C21.3421 13.9146 21.4711 13.6827 21.7232 13.4983C21.9811 13.314 22.3036 13.2188 22.6846 13.2188C23.2123 13.2129 23.6226 13.3318 23.9158 13.5697C23.9158 13.9741 23.7575 14.3249 23.4468 14.6223C23.1654 14.9077 22.7843 15.0683 22.3856 15.0683C22.1218 15.0742 21.8639 14.985 21.6528 14.8185ZM26.846 18L29.9996 10.6558H28.9738L27.5143 14.319H27.4967L26.002 10.6558H24.9762L27.0453 15.431L25.873 18H26.846Z" fill="#3C4043"></path>
    <path d="M13.272 12.083C13.272 11.7916 13.2486 11.5002 13.2017 11.2148H9.22168V12.862H11.5018C11.408 13.3913 11.1032 13.867 10.6578 14.1643V15.2348H12.0176C12.8148 14.4914 13.272 13.3913 13.272 12.083Z" fill="#4285F4"></path>
    <path d="M9.22211 16.2695C10.3592 16.2695 11.3205 15.8889 12.0181 15.2347L10.6582 14.1643C10.2772 14.426 9.79068 14.5747 9.22211 14.5747C8.12013 14.5747 7.18815 13.8194 6.85404 12.8085H5.45312V13.9146C6.16824 15.3596 7.62776 16.2695 9.22211 16.2695Z" fill="#34A853"></path>
    <path d="M6.85401 12.8085C6.67814 12.2792 6.67814 11.7024 6.85401 11.1672V10.067H5.45288C4.84904 11.2742 4.84904 12.7015 5.45288 13.9087L6.85401 12.8085Z" fill="#FBBC04"></path>
    <path d="M9.22211 9.40099C9.82585 9.38909 10.4061 9.62102 10.8399 10.0432L12.0474 8.81821C11.2795 8.0927 10.2713 7.69427 9.22211 7.70616C7.62776 7.70616 6.16824 8.62196 5.45312 10.067L6.85404 11.1731C7.18815 10.1562 8.12013 9.40099 9.22211 9.40099Z" fill="#EA4335"></path>
  </symbol>
  <symbol fill="none" xmlns="http://www.w3.org/2000/svg" viewBox="0 0 35 24" id="paypal">
    <rect width="35" height="24" rx="4" fill="#F3FBFF"></rect>
    <path d="M15.2363 17.7688L15.4509 16.4063L14.9731 16.3952H12.6914L14.277 6.34109C14.2819 6.31074 14.2979 6.28244 14.3213 6.26234C14.3447 6.24225 14.3747 6.23117 14.4059 6.23117H18.2531C19.5303 6.23117 20.4117 6.49695 20.8719 7.02154C21.0876 7.26763 21.2251 7.5248 21.2915 7.8078C21.3612 8.10476 21.3625 8.45954 21.2944 8.89226L21.2894 8.92384V9.2011L21.5052 9.32334C21.6869 9.41971 21.8312 9.53005 21.942 9.65638C22.1266 9.86679 22.246 10.1342 22.2964 10.4513C22.3485 10.7773 22.3312 11.1653 22.246 11.6046C22.1475 12.1099 21.9884 12.55 21.7735 12.9101C21.5757 13.242 21.3239 13.5171 21.0249 13.7305C20.7395 13.9331 20.4002 14.0869 20.0168 14.1854C19.6451 14.2821 19.2215 14.3309 18.7567 14.3309H18.4573C18.2433 14.3309 18.0352 14.408 17.8721 14.5463C17.7084 14.6874 17.6 14.8801 17.5669 15.0909L17.5443 15.2136L17.1653 17.615L17.1481 17.7032C17.1436 17.7312 17.1358 17.7451 17.1244 17.7545C17.1141 17.763 17.0993 17.7688 17.0849 17.7688H15.2363Z" fill="#253B80"></path>
    <path d="M21.7081 8.95639C21.6966 9.0298 21.6835 9.10486 21.6687 9.18197C21.1613 11.7869 19.4256 12.6868 17.2086 12.6868H16.0799C15.8088 12.6868 15.5804 12.8836 15.5381 13.151L14.9602 16.8162L14.7965 17.8551C14.769 18.0307 14.9044 18.189 15.0815 18.189H17.0836C17.3207 18.189 17.522 18.0167 17.5593 17.783L17.579 17.6812L17.956 15.2892L17.9802 15.158C18.017 14.9234 18.2188 14.7511 18.4559 14.7511H18.7553C20.6949 14.7511 22.2134 13.9636 22.6572 11.6847C22.8426 10.7328 22.7466 9.93789 22.256 9.37885C22.1076 9.21027 21.9234 9.07041 21.7081 8.95639Z" fill="#179BD7"></path>
    <path d="M21.1763 8.74412C21.0989 8.72156 21.0188 8.70105 20.9368 8.68259C20.8544 8.66455 20.7698 8.64855 20.6829 8.63461C20.3786 8.58539 20.0451 8.56201 19.6879 8.56201H16.6724C16.5982 8.56201 16.5277 8.57882 16.4645 8.60918C16.3254 8.67603 16.2221 8.8077 16.1971 8.96888L15.5555 13.0319L15.5371 13.1504C15.5794 12.883 15.8078 12.6861 16.0789 12.6861H17.2076C19.4246 12.6861 21.1604 11.7858 21.6677 9.18134C21.6829 9.10423 21.6956 9.02918 21.7071 8.95577C21.5787 8.88768 21.4396 8.82943 21.2899 8.7798C21.2531 8.7675 21.215 8.75561 21.1763 8.74412Z" fill="#222D65"></path>
    <path d="M16.199 8.96916C16.2241 8.80796 16.3275 8.6763 16.4665 8.60986C16.5301 8.5795 16.6002 8.56269 16.6744 8.56269H19.6899C20.0472 8.56269 20.3806 8.58607 20.6849 8.63529C20.7719 8.64923 20.8564 8.66523 20.9388 8.68327C21.0209 8.70174 21.1008 8.72224 21.1784 8.74479C21.2169 8.75628 21.255 8.76817 21.2923 8.78007C21.442 8.8297 21.5811 8.88835 21.7095 8.95603C21.8605 7.99339 21.7083 7.33797 21.1878 6.74447C20.614 6.0911 19.5784 5.81137 18.2532 5.81137H14.4058C14.1351 5.81137 13.9043 6.00824 13.8624 6.27607L12.26 16.4336C12.2283 16.6345 12.3834 16.8159 12.586 16.8159H14.9612L15.5576 13.0322L16.199 8.96916Z" fill="#253B80"></path>
  </symbol>
  <symbol fill="none" xmlns="http://www.w3.org/2000/svg" viewBox="0 0 35 24" id="visa">
    <rect width="35" height="24" rx="4" fill="#EBF3FA"></rect>
    <path d="M14.9741 16.0828H12.9951L14.2329 8.4292H16.2118L14.9741 16.0828Z" fill="#00579F"></path>
    <path d="M22.1473 8.61637C21.757 8.46151 21.1379 8.29053 20.3723 8.29053C18.418 8.29053 17.0418 9.33267 17.0334 10.8226C17.0172 11.9219 18.0187 12.5325 18.7678 12.899C19.5334 13.2735 19.7937 13.518 19.7937 13.8518C19.7859 14.3646 19.175 14.6009 18.6053 14.6009C17.8152 14.6009 17.3918 14.4791 16.7485 14.1938L16.4879 14.0715L16.2109 15.7896C16.6751 16.001 17.5302 16.1887 18.418 16.1969C20.4945 16.1969 21.8464 15.1709 21.8624 13.5831C21.8703 12.7119 21.3414 12.0443 20.2013 11.4988C19.5091 11.1486 19.0852 10.9124 19.0852 10.5541C19.0933 10.2284 19.4437 9.89475 20.2251 9.89475C20.8684 9.87841 21.3411 10.0331 21.6992 10.1878L21.8782 10.2691L22.1473 8.61637Z" fill="#00579F"></path>
    <path d="M24.7786 13.3714C24.9416 12.9317 25.5687 11.23 25.5687 11.23C25.5605 11.2463 25.7314 10.7822 25.8291 10.4972L25.9674 11.1567C25.9674 11.1567 26.3421 12.9887 26.4235 13.3714C26.1142 13.3714 25.1695 13.3714 24.7786 13.3714ZM27.2214 8.4292H25.6907C25.2186 8.4292 24.86 8.5675 24.6563 9.06422L21.7168 16.0827H23.7933C23.7933 16.0827 24.1351 15.1381 24.2086 14.9346C24.4364 14.9346 26.4564 14.9346 26.7495 14.9346C26.8063 15.2033 26.9856 16.0827 26.9856 16.0827H28.8179L27.2214 8.4292Z" fill="#00579F"></path>
    <path d="M11.342 8.4292L9.40391 13.6482L9.19213 12.5897C8.83382 11.3684 7.71008 10.0414 6.45605 9.38162L8.23126 16.0747H10.324L13.4346 8.4292H11.342Z" fill="#00579F"></path>
    <path d="M7.60426 8.4292H4.42027L4.3877 8.58384C6.8714 9.21897 8.51632 10.7499 9.19214 12.5901L8.49997 9.07255C8.38602 8.58373 8.03583 8.44532 7.60426 8.4292Z" fill="#FAA61A"></path>
  </symbol>
</svg>