<svg width="0" height="0" class="hidden">
  <symbol xmlns="http://www.w3.org/2000/svg" viewBox="0 0 24 24" id="time">
    <path fill="none" d="M0 0h24v24H0z"></path>
    <path d="M12 22C6.477 22 2 17.523 2 12S6.477 2 12 2s10 4.477 10 10-4.477 10-10 10zm0-2a8 8 0 1 0 0-16 8 8 0 0 0 0 16zm1-8h4v2h-6V7h2v5z" ></path>
  </symbol>
  <symbol xmlns="http://www.w3.org/2000/svg" viewBox="0 0 24 24" id="scales">
    <path fill="none" d="M0 0H24V24H0z"></path>
    <path d="M6 2c0 .513.49 1 1 1h10c.513 0 1-.49 1-1h2c0 1.657-1.343 3-3 3h-4l.001 2.062C16.947 7.555 20 10.921 20 15v6c0 .552-.448 1-1 1H5c-.552 0-1-.448-1-1v-6c0-4.08 3.054-7.446 7-7.938V5H7C5.34 5 4 3.66 4 2h2zm6 7c-3.238 0-6 2.76-6 6v5h12v-5c0-3.238-2.762-6-6-6zm0 2c.742 0 1.436.202 2.032.554l-2.74 2.739c-.39.39-.39 1.024 0 1.414.361.36.929.388 1.32.083l.095-.083 2.74-2.739c.351.596.553 1.29.553 2.032 0 2.21-1.79 4-4 4s-4-1.79-4-4 1.79-4 4-4z" ></path>
  </symbol>
  <symbol xmlns="http://www.w3.org/2000/svg" viewBox="0 0 24 24" id="fire">
    <path fill="none" d="M0 0h24v24H0z"></path>
    <path d="M12 23a7.5 7.5 0 0 0 7.5-7.5c0-.866-.23-1.697-.5-2.47-1.667 1.647-2.933 2.47-3.8 2.47 3.995-7 1.8-10-4.2-14 .5 5-2.796 7.274-4.138 8.537A7.5 7.5 0 0 0 12 23zm.71-17.765c3.241 2.75 3.257 4.887.753 9.274-.761 1.333.202 2.991 1.737 2.991.688 0 1.384-.2 2.119-.595a5.5 5.5 0 1 1-9.087-5.412c.126-.118.765-.685.793-.71.424-.38.773-.717 1.118-1.086 1.23-1.318 2.114-2.78 2.566-4.462z" ></path>
  </symbol>
</svg>